<?xml version="1.0" standalone="no"?>
<!DOCTYPE svg PUBLIC "-//W3C//DTD SVG 20010904//EN"
 "http://www.w3.org/TR/2001/REC-SVG-20010904/DTD/svg10.dtd">
<svg version="1.0" xmlns="http://www.w3.org/2000/svg"
 width="1536.000000pt" height="1024.000000pt" viewBox="0 0 1536.000000 1024.000000"
 preserveAspectRatio="xMidYMid meet">

<g transform="translate(0.000000,1024.000000) scale(0.100000,-0.100000)"
fill="#000000" stroke="none">
<path d="M7182 9055 c-115 -50 -259 -257 -333 -475 -66 -198 -83 -455 -55
-802 9 -109 16 -206 16 -215 0 -11 -57 -69 -137 -140 -178 -157 -374 -357
-448 -457 -164 -223 -234 -447 -222 -710 17 -374 212 -683 532 -843 172 -87
313 -116 540 -111 l160 3 17 -100 c65 -394 76 -536 45 -636 -33 -109 -119
-203 -224 -243 -69 -26 -224 -33 -294 -12 -97 27 -147 96 -71 96 91 0 192 81
231 184 74 198 -56 390 -264 390 -91 0 -158 -29 -220 -95 -72 -77 -90 -125
-90 -244 0 -92 3 -106 32 -168 85 -179 271 -287 496 -287 110 0 174 14 264 56
141 67 247 197 279 342 22 99 16 180 -36 467 -23 127 -44 244 -47 262 -5 31
-4 32 62 62 316 144 491 482 420 816 -42 198 -197 391 -381 476 -89 41 -206
62 -277 51 -54 -8 -58 -8 -62 12 -2 12 -21 111 -40 221 -20 110 -39 210 -42
223 -4 18 11 40 84 115 253 260 388 492 448 767 22 103 31 365 16 471 -45 316
-181 540 -328 539 -21 -1 -53 -7 -71 -15z m190 -362 c9 -8 27 -38 40 -66 21
-47 23 -66 22 -187 0 -123 -3 -142 -28 -209 -57 -152 -158 -294 -335 -471
l-124 -125 -16 35 c-22 52 -20 421 3 544 31 159 86 265 200 384 106 111 183
141 238 95z m-428 -1775 c19 -103 38 -198 41 -211 6 -22 1 -26 -57 -47 -172
-62 -315 -223 -363 -407 -58 -221 46 -474 229 -563 77 -37 128 -47 144 -27 17
21 7 40 -34 62 -131 70 -197 227 -160 376 31 122 114 210 244 259 48 18 51 18
56 2 8 -27 50 -257 111 -602 63 -358 65 -334 -33 -346 -78 -10 -266 2 -337 20
-200 53 -402 213 -492 389 -70 140 -86 341 -38 502 55 185 156 339 354 535
108 107 287 257 296 248 2 -2 19 -87 39 -190z m328 -529 c156 -33 290 -165
334 -332 27 -103 11 -245 -41 -346 -49 -98 -224 -255 -239 -215 -3 8 -17 81
-31 162 -13 81 -47 275 -75 431 -27 156 -50 290 -50 297 0 17 31 18 102 3z"/>
<path d="M7700 7443 c-62 -22 -161 -122 -185 -188 -15 -41 -19 -88 -23 -261
l-4 -211 76 -46 76 -45 0 236 c0 269 6 295 76 348 l37 29 982 3 982 2 34 -23
c18 -12 44 -40 56 -62 l23 -40 0 -703 c0 -568 -3 -709 -14 -735 -15 -38 -77
-95 -109 -101 -12 -3 -284 -7 -605 -10 l-583 -6 -197 -172 c-108 -95 -198
-176 -200 -180 -2 -4 -8 -8 -12 -8 -5 0 -8 82 -7 182 l2 183 -50 -2 c-27 0
-84 -1 -125 -2 -74 -1 -76 -2 -94 -33 -11 -18 -34 -52 -53 -75 l-34 -43 98 0
98 0 0 -274 c0 -274 0 -275 20 -257 11 10 152 132 314 272 l293 254 572 5 571
5 62 29 c73 33 144 103 176 174 22 47 22 48 22 792 0 740 0 745 -21 791 -32
69 -91 128 -159 161 l-60 28 -995 -1 c-881 0 -1000 -2 -1040 -16z"/>
<path d="M8626 7029 l-26 -20 0 -533 c0 -504 1 -534 18 -549 26 -24 68 -21 86
5 14 20 16 88 16 548 0 289 -4 530 -8 536 -6 10 -45 34 -55 34 -2 0 -16 -9
-31 -21z"/>
<path d="M8417 6812 c-15 -16 -17 -55 -17 -334 0 -292 1 -316 18 -331 26 -24
68 -21 86 5 14 19 16 68 16 328 0 260 -2 309 -16 328 -19 27 -64 29 -87 4z"/>
<path d="M8820 6790 c-19 -19 -20 -33 -20 -313 0 -249 2 -296 16 -315 17 -25
51 -29 80 -8 18 14 19 29 19 316 l0 302 -24 19 c-30 24 -46 24 -71 -1z"/>
<path d="M9224 6742 c-29 -19 -34 -55 -34 -267 l0 -216 25 -24 c29 -30 49 -31
75 -5 19 19 20 33 20 250 0 217 -1 231 -20 250 -21 21 -47 25 -66 12z"/>
<path d="M8240 6682 c-35 -11 -40 -33 -40 -198 0 -89 3 -170 6 -179 11 -27 53
-38 80 -20 24 15 24 17 24 194 0 131 -3 181 -12 188 -19 15 -41 21 -58 15z"/>
<path d="M9018 6619 c-16 -9 -18 -26 -18 -129 0 -118 0 -120 26 -137 24 -15
29 -15 53 -2 25 14 26 17 29 131 2 96 0 119 -13 132 -19 18 -52 20 -77 5z"/>
<path d="M9410 6600 c-17 -17 -20 -33 -20 -120 0 -87 3 -103 20 -120 26 -26
46 -25 75 5 23 22 25 32 25 115 0 83 -2 93 -25 115 -29 30 -49 31 -75 5z"/>
<path d="M8016 6526 c-33 -32 -33 -50 0 -83 20 -20 31 -24 57 -19 37 7 47 20
47 62 0 35 -12 49 -52 59 -21 5 -33 1 -52 -19z"/>
<path d="M9604 6532 c-6 -4 -16 -17 -23 -30 -10 -19 -10 -28 3 -47 20 -31 49
-39 83 -23 54 26 34 108 -26 108 -14 0 -31 -4 -37 -8z"/>
<path d="M2822 3410 c-104 -28 -167 -65 -247 -145 -108 -107 -155 -226 -155
-390 0 -264 157 -469 399 -521 135 -28 318 -13 461 38 l65 23 3 123 3 122 -36
0 c-29 0 -35 -4 -35 -21 0 -35 -49 -126 -85 -158 -48 -42 -132 -65 -208 -57
-211 22 -337 199 -337 471 1 273 120 438 330 453 129 9 219 -39 270 -142 29
-58 36 -66 61 -66 l29 0 0 115 0 115 -27 11 c-70 27 -159 41 -283 45 -113 4
-147 1 -208 -16z"/>
<path d="M9420 3371 c0 -29 14 -41 51 -41 10 0 28 -9 39 -20 26 -26 26 -79 0
-433 -29 -401 -37 -432 -113 -451 -32 -8 -37 -14 -37 -38 l0 -28 165 0 165 0
0 29 c0 25 -4 29 -38 35 -64 10 -76 33 -80 150 -2 56 3 178 12 272 8 93 18
208 22 257 4 48 11 87 15 87 5 0 9 -8 9 -17 0 -9 73 -198 162 -420 149 -370
164 -403 186 -403 29 0 35 12 223 497 79 205 146 373 149 373 3 0 6 -24 8 -53
1 -28 10 -169 18 -312 23 -363 23 -393 1 -410 -11 -7 -36 -17 -58 -20 -35 -6
-39 -10 -39 -36 l0 -29 215 0 215 0 0 30 c0 24 -5 31 -27 35 -52 11 -78 30
-90 68 -14 42 -66 693 -61 771 l3 51 48 14 c42 13 47 18 47 43 l0 28 -147 0
-148 0 -79 -203 c-43 -111 -111 -283 -149 -382 -54 -137 -72 -175 -78 -160 -5
11 -51 128 -103 260 -52 132 -118 295 -146 363 l-52 122 -154 0 -154 0 0 -29z"/>
<path d="M12455 3270 c-46 -92 -123 -162 -208 -189 -30 -10 -38 -17 -35 -34 2
-17 13 -24 51 -31 l47 -8 0 -267 c0 -257 1 -268 23 -311 32 -65 73 -85 172
-85 88 0 133 17 200 76 36 32 41 44 27 67 -7 10 -19 7 -53 -13 -46 -26 -106
-33 -139 -15 -34 18 -40 65 -40 311 l0 239 110 0 110 0 0 40 0 40 -112 0 -111
0 6 115 c5 97 4 115 -8 115 -8 0 -26 -23 -40 -50z"/>
<path d="M3723 3096 c-76 -25 -145 -80 -202 -163 -62 -91 -81 -260 -40 -367
28 -77 96 -148 177 -188 63 -31 72 -33 177 -33 100 0 115 3 166 28 70 34 152
119 187 194 24 52 27 69 27 168 0 99 -3 115 -27 165 -39 80 -88 132 -160 170
-58 32 -71 35 -163 37 -64 2 -115 -2 -142 -11z m174 -75 c87 -40 128 -154 121
-341 -5 -131 -24 -188 -77 -233 -27 -23 -42 -27 -92 -27 -53 0 -63 3 -98 35
-51 46 -77 104 -90 200 -37 261 77 438 236 366z"/>
<path d="M4414 3077 c-67 -18 -122 -35 -123 -39 -5 -35 1 -46 29 -51 16 -4 37
-18 47 -34 16 -24 18 -53 18 -261 0 -233 0 -234 -24 -253 -13 -10 -34 -19 -47
-19 -20 0 -24 -5 -24 -30 l0 -30 185 0 185 0 0 30 c0 25 -4 30 -25 30 -14 0
-34 9 -45 20 -19 19 -20 33 -20 236 l0 217 43 42 c88 89 212 67 238 -42 11
-48 11 -353 0 -412 -10 -48 -23 -61 -63 -61 -24 0 -28 -4 -28 -30 l0 -30 185
0 185 0 0 30 c0 25 -4 30 -23 30 -13 0 -32 6 -43 14 -18 13 -19 30 -22 241 -2
171 0 230 9 242 7 8 36 28 64 44 57 33 110 37 156 13 53 -27 59 -59 59 -303 0
-216 0 -220 -22 -235 -12 -9 -33 -16 -45 -16 -19 0 -23 -5 -23 -30 l0 -30 185
0 185 0 0 30 c0 25 -4 30 -25 30 -14 0 -33 8 -44 19 -17 17 -19 41 -23 262 -4
218 -7 249 -25 290 -66 149 -294 163 -420 26 l-39 -42 -27 42 c-39 59 -110 93
-196 93 -81 0 -139 -25 -198 -83 l-43 -41 0 62 c0 74 11 72 -156 29z"/>
<path d="M5770 3076 c-118 -31 -125 -35 -128 -60 -3 -22 0 -26 23 -26 14 0 36
-11 49 -23 22 -22 24 -34 31 -193 4 -93 5 -281 2 -419 l-6 -250 -26 -22 c-14
-13 -37 -23 -51 -23 -20 0 -24 -5 -24 -30 l0 -30 199 0 200 0 -1 29 c-1 26 -5
29 -41 34 -64 9 -69 20 -75 160 l-5 125 100 -5 c161 -9 276 38 362 147 128
162 114 424 -29 553 -60 54 -116 71 -208 65 -74 -5 -130 -29 -187 -79 l-35
-31 0 56 c0 39 -4 56 -12 55 -7 0 -69 -15 -138 -33z m379 -100 c77 -40 121
-136 121 -265 0 -180 -76 -291 -201 -291 -55 0 -128 35 -140 67 -5 13 -9 115
-9 227 0 197 1 203 23 224 52 49 150 67 206 38z"/>
<path d="M6810 3094 c-69 -25 -127 -70 -175 -135 -60 -82 -80 -144 -80 -254 0
-80 3 -97 31 -155 39 -80 101 -144 174 -179 49 -23 67 -26 165 -26 99 0 115 3
165 27 74 36 144 108 183 188 30 61 32 71 32 175 0 98 -3 116 -26 166 -37 79
-90 133 -167 171 -59 29 -77 33 -162 35 -68 2 -108 -2 -140 -13z m177 -73 c87
-40 128 -154 121 -341 -5 -132 -24 -188 -78 -234 -31 -26 -39 -28 -99 -24 -61
4 -66 6 -103 48 -56 63 -73 128 -73 280 0 109 3 132 23 177 47 102 118 135
209 94z"/>
<path d="M7564 3094 c-56 -20 -123 -79 -145 -128 -34 -75 -19 -177 34 -234 26
-28 79 -56 195 -102 135 -53 174 -111 119 -176 -26 -29 -95 -42 -162 -30 -51
10 -109 66 -136 131 -20 48 -26 55 -51 55 l-28 0 7 -107 c3 -60 11 -111 17
-116 37 -25 128 -42 231 -42 94 0 117 3 160 23 95 44 144 114 145 208 0 110
-62 173 -241 241 -113 42 -159 78 -159 122 0 88 124 128 218 71 29 -18 68 -82
86 -142 3 -11 15 -18 31 -18 l26 0 -3 112 -3 113 -40 14 c-60 21 -250 24 -301
5z"/>
<path d="M8290 3101 c-91 -28 -183 -112 -228 -209 -25 -52 -27 -67 -27 -182 0
-118 2 -128 29 -183 35 -68 98 -129 164 -160 38 -17 66 -21 152 -22 101 0 107
1 169 35 44 23 78 53 112 94 27 34 49 63 49 66 0 3 -7 13 -15 23 -13 18 -16
17 -65 -22 -50 -39 -129 -71 -177 -71 -125 0 -223 98 -240 241 l-6 49 243 0
243 0 -5 68 c-8 114 -77 216 -178 261 -47 21 -167 28 -220 12z m157 -87 c31
-19 53 -66 60 -125 l6 -49 -150 0 -150 0 8 45 c15 83 52 131 111 145 39 10 85
3 115 -16z"/>
<path d="M8890 3076 c-118 -31 -125 -35 -128 -60 -3 -20 1 -26 17 -26 11 0 33
-11 48 -24 l28 -24 3 -241 c3 -231 2 -241 -17 -260 -12 -12 -32 -21 -46 -21
-21 0 -25 -5 -25 -30 l0 -30 213 0 214 0 -5 30 c-4 26 -9 30 -34 30 -37 0 -84
24 -98 50 -7 12 -11 91 -11 202 1 178 1 181 26 214 43 56 87 68 183 51 42 -7
43 -6 56 25 8 18 17 54 21 80 7 45 6 48 -20 58 -37 14 -90 13 -128 -4 -36 -15
-111 -92 -122 -125 -14 -44 -25 -18 -25 59 0 58 -3 80 -12 79 -7 0 -69 -15
-138 -33z"/>
<path d="M10964 3089 c-99 -38 -186 -138 -219 -253 -13 -43 -16 -84 -13 -151
3 -79 8 -101 36 -158 57 -115 156 -177 294 -185 130 -8 227 38 309 145 36 46
40 55 28 71 -7 9 -14 19 -15 20 -1 2 -26 -15 -54 -37 -178 -141 -386 -57 -416
167 l-7 52 243 0 243 0 -5 68 c-8 114 -77 216 -178 261 -61 28 -175 28 -246 0z
m178 -71 c25 -12 55 -75 63 -131 l7 -47 -150 0 -149 0 8 45 c15 83 52 131 111
145 35 9 82 4 110 -12z"/>
<path d="M11739 3097 c-94 -35 -164 -103 -212 -206 -26 -55 -32 -81 -35 -157
-3 -64 0 -107 11 -145 49 -166 188 -259 369 -247 89 6 151 32 212 88 64 59 90
103 76 130 -14 26 -16 26 -56 -10 -63 -55 -112 -74 -189 -74 -138 0 -216 77
-240 238 l-7 46 242 0 243 0 -5 69 c-8 112 -71 211 -163 256 -51 25 -193 31
-246 12z m188 -104 c20 -24 43 -99 43 -138 0 -13 -25 -15 -145 -15 l-145 0 0
28 c0 40 45 128 72 143 63 34 139 27 175 -18z"/>
</g>
</svg>
